<?xml version="1.0" encoding="iso-8859-1"?>
<!-- Generator: Adobe Illustrator 19.0.0, SVG Export Plug-In . SVG Version: 6.00 Build 0)  -->
<svg version="1.1" id="Layer_1" xmlns="http://www.w3.org/2000/svg" xmlns:xlink="http://www.w3.org/1999/xlink" x="0px" y="0px"
	 viewBox="0 0 501.6 501.6" style="enable-background:new 0 0 501.6 501.6;" xml:space="preserve">
<g>
	<path style="fill:#005EF4;" d="M218.8,404c-13.6,0-24-10.4-24-24v-91.2c0-13.6,10.4-24,24-24s24,10.4,24,24v90.4
		C242.8,392.8,232.4,404,218.8,404z"/>
	<path style="fill:#005EF4;" d="M218.8,140.8c-13.6,0-24-10.4-24-24V24c0-13.6,10.4-24,24-24s24,10.4,24,24v92.8
		C242.8,129.6,232.4,140.8,218.8,140.8z"/>
</g>
<path style="fill:#36A4FF;" d="M222,500.8c-6.4,0-12-2.4-16.8-7.2c-9.6-9.6-9.6-24.8,0-33.6l114.4-113.6L121.2,148
	c-9.6-9.6-9.6-24.8,0-33.6c9.6-9.6,24.8-9.6,33.6,0l232,232l-147.2,148C234.8,498.4,228.4,500.8,222,500.8z"/>
<path style="fill:#1085F9;" d="M155.6,114.4l232,232l-148,148c-4.8,4.8-11.2,7.2-16.8,7.2s-12-2.4-16.8-7.2
	c-9.6-9.6-9.6-24.8,0-33.6l113.6-114.4L121.2,148"/>
<rect x="252.395" y="270.655" transform="matrix(0.7071 0.7071 -0.7071 0.7071 296.8044 -127.2401)" style="fill:#005EF4;" width="99.199" height="48"/>
<path style="fill:#36A4FF;" d="M138,393.6c-6.4,0-12-2.4-16.8-7.2c-9.6-9.6-9.6-24.8,0-33.6l198.4-198.4L205.2,40.8
	c-9.6-9.6-9.6-24.8,0-33.6c9.6-9.6,24.8-9.6,33.6,0l148.8,147.2l-232,232C150.8,391.2,144.4,393.6,138,393.6z"/>
<path style="fill:#1085F9;" d="M121.2,352.8l198.4-198.4L205.2,40.8c-9.6-9.6-9.6-24.8,0-33.6c9.6-9.6,24.8-9.6,33.6,0l148.8,147.2
	l-232,232"/>
<g>
</g>
<g>
</g>
<g>
</g>
<g>
</g>
<g>
</g>
<g>
</g>
<g>
</g>
<g>
</g>
<g>
</g>
<g>
</g>
<g>
</g>
<g>
</g>
<g>
</g>
<g>
</g>
<g>
</g>
</svg>
