<?xml version="1.0" encoding="iso-8859-1"?>
<!-- Generator: Adobe Illustrator 19.0.0, SVG Export Plug-In . SVG Version: 6.00 Build 0)  -->
<svg version="1.1" id="Capa_1" xmlns="http://www.w3.org/2000/svg" xmlns:xlink="http://www.w3.org/1999/xlink" x="0px" y="0px"
	 viewBox="0 0 512 512" style="enable-background:new 0 0 512 512;" xml:space="preserve">
<path style="fill:#72A3FC;" d="M456.606,89.247L371.753,4.394C368.94,1.581,365.125,0,361.147,0H150.853
	c-3.978,0-7.793,1.581-10.606,4.394L55.394,89.247C52.581,92.06,51,95.875,51,99.853v312.294c0,3.978,1.581,7.793,4.394,10.606
	l84.853,84.853c2.813,2.813,6.628,4.394,10.606,4.394h210.294c3.978,0,7.793-1.581,10.606-4.394l84.853-84.853
	c2.813-2.813,4.394-6.628,4.394-10.606V99.853C461,95.875,459.419,92.06,456.606,89.247z"/>
<path style="fill:#2892FC;" d="M456.606,89.247L371.753,4.394C368.94,1.581,365.125,0,361.147,0H256v512h105.147
	c3.978,0,7.793-1.581,10.606-4.394l84.853-84.853c2.813-2.813,4.394-6.628,4.394-10.606V99.853
	C461,95.875,459.419,92.06,456.606,89.247z"/>
<path style="fill:#F9F9F9;" d="M278.355,256l82.709-74.846c3.142-2.844,4.935-6.884,4.935-11.122s-1.793-8.278-4.935-11.122
	l-95-85.968c-4.399-3.98-10.729-4.995-16.149-2.589c-5.421,2.406-8.916,7.78-8.916,13.711v138.132l-69.935-63.286
	c-6.143-5.558-15.627-5.085-21.187,1.057c-5.559,6.143-5.085,15.628,1.057,21.187L233.645,256l-82.709,74.846
	c-6.143,5.559-6.616,15.044-1.057,21.187c5.531,6.112,15.015,6.642,21.187,1.057L241,289.804v138.132
	c0,5.931,3.495,11.305,8.916,13.711c5.433,2.41,11.759,1.383,16.149-2.589l95-85.968c3.142-2.844,4.935-6.884,4.935-11.122
	s-1.793-8.278-4.935-11.122L278.355,256z M271,117.868l57.645,52.164L271,222.196V117.868z M271,394.132V289.804l57.645,52.165
	L271,394.132z"/>
<path style="fill:#DFE4EA;" d="M278.355,256l82.709-74.846c3.142-2.844,4.935-6.884,4.935-11.122s-1.793-8.278-4.935-11.122
	l-95-85.968c-2.813-2.545-6.416-3.871-10.065-3.872v373.86c3.654-0.001,7.256-1.33,10.065-3.872l95-85.968
	c3.142-2.844,4.935-6.884,4.935-11.122s-1.793-8.278-4.935-11.122L278.355,256z M271,117.868l57.645,52.164L271,222.196V117.868z
	 M271,394.132V289.804l57.645,52.165L271,394.132z"/>
<g>
</g>
<g>
</g>
<g>
</g>
<g>
</g>
<g>
</g>
<g>
</g>
<g>
</g>
<g>
</g>
<g>
</g>
<g>
</g>
<g>
</g>
<g>
</g>
<g>
</g>
<g>
</g>
<g>
</g>
</svg>
