<?xml version="1.0" encoding="iso-8859-1"?>
<!-- Generator: Adobe Illustrator 19.0.0, SVG Export Plug-In . SVG Version: 6.00 Build 0)  -->
<svg version="1.1" id="Capa_1" xmlns="http://www.w3.org/2000/svg" xmlns:xlink="http://www.w3.org/1999/xlink" x="0px" y="0px"
	 viewBox="0 0 512 512" style="enable-background:new 0 0 512 512;" xml:space="preserve">
<path style="fill:#0A4EAF;" d="M101,0v512h310V0H101z"/>
<path style="fill:#063E8B;" d="M256,0v512h155V0H256z"/>
<rect x="131" y="70" style="fill:#ACE3FC;" width="250" height="332"/>
<rect x="256" y="70" style="fill:#86D6F2;" width="125" height="332"/>
<rect x="226" y="442" style="fill:#063E8B;" width="60" height="30"/>
<rect x="256" y="442" style="fill:#032E68;" width="30" height="30"/>
<path style="fill:#FFFFFF;" d="M248.213,371H226v-97.787l-33.394,33.394l-21.213-21.213L220.787,236l-49.393-49.394l21.213-21.213
	L226,198.787V101h22.213l75,75l-60,60l60,60L248.213,371z M256,271.213v49.574L280.787,296L256,271.213z M256,151.213v49.574
	L280.787,176L256,151.213z"/>
<polygon style="fill:#DCF4FF;" points="323.213,176 256,108.787 256,151.213 280.787,176 256,200.787 256,271.213 280.787,296 
	256,320.787 256,363.213 323.213,296 263.213,236 "/>
<g>
</g>
<g>
</g>
<g>
</g>
<g>
</g>
<g>
</g>
<g>
</g>
<g>
</g>
<g>
</g>
<g>
</g>
<g>
</g>
<g>
</g>
<g>
</g>
<g>
</g>
<g>
</g>
<g>
</g>
</svg>
